<?xml version="1.0" encoding="UTF-8" standalone="no"?>
<svg
   xmlns:dc="http://purl.org/dc/elements/1.1/"
   xmlns:cc="http://creativecommons.org/ns#"
   xmlns:rdf="http://www.w3.org/1999/02/22-rdf-syntax-ns#"
   xmlns:svg="http://www.w3.org/2000/svg"
   xmlns="http://www.w3.org/2000/svg"
   viewBox="0 0 1122.52 793.70135"
   height="793.70135"
   width="1122.52"
   xml:space="preserve"
   id="svg2"
   version="1.1"><metadata
     id="metadata8"><rdf:RDF><cc:Work
         rdf:about=""><dc:format>image/svg+xml</dc:format><dc:type
           rdf:resource="http://purl.org/dc/dcmitype/StillImage" /></cc:Work></rdf:RDF></metadata><defs
     id="defs6"><clipPath
       id="clipPath18"
       clipPathUnits="userSpaceOnUse"><path
         id="path16"
         d="M 0,595.276 H 841.89 V 0 H 0 Z" /></clipPath></defs><g
     transform="matrix(1.3333333,0,0,-1.3333333,0,793.70133)"
     id="g10"><g
       id="g12"><g
         clip-path="url(#clipPath18)"
         id="g14"><g
           transform="translate(325.3301,349.7239)"
           id="g20"><path
             id="path22"
             style="fill:#000000;fill-opacity:1;fill-rule:nonzero;stroke:none"
             d="m 0,0 c 2.536,4.592 6.071,8.17 10.608,10.735 4.535,2.563 9.679,3.846 15.426,3.846 7.044,0 13.073,-1.86 18.089,-5.579 5.015,-3.719 8.368,-8.791 10.059,-15.215 H 38.291 c -1.184,2.479 -2.861,4.366 -5.03,5.663 -2.17,1.296 -4.636,1.944 -7.396,1.944 -4.452,0 -8.059,-1.55 -10.819,-4.649 -2.762,-3.099 -4.142,-7.241 -4.142,-12.425 0,-5.185 1.38,-9.327 4.142,-12.425 2.76,-3.1 6.367,-4.65 10.819,-4.65 2.76,0 5.226,0.648 7.396,1.945 2.169,1.295 3.846,3.182 5.03,5.663 h 15.891 c -1.691,-6.424 -5.044,-11.482 -10.059,-15.173 -5.016,-3.691 -11.045,-5.536 -18.089,-5.536 -5.747,0 -10.891,1.281 -15.426,3.846 -4.537,2.563 -8.072,6.128 -10.608,10.692 -2.536,4.565 -3.804,9.776 -3.804,15.638 0,5.86 1.268,11.086 3.804,15.68" /></g><g
           transform="translate(418.1836,325.9293)"
           id="g24"><path
             id="path26"
             style="fill:#000000;fill-opacity:1;fill-rule:nonzero;stroke:none"
             d="M 0,0 -7.354,21.723 -14.623,0 Z m 3.719,-11.157 h -22.146 l -3.55,-10.482 h -15.131 l 21.47,59.338 H 1.099 L 22.568,-21.639 H 7.269 Z" /></g><g
           transform="translate(514.4597,363.6282)"
           id="g28"><path
             id="path30"
             style="fill:#000000;fill-opacity:1;fill-rule:nonzero;stroke:none"
             d="m 0,0 v -59.338 h -14.454 v 35.586 L -27.725,-59.338 H -39.39 l -13.355,35.671 V -59.338 H -67.199 V 0 h 17.075 L -33.473,-41.08 -16.99,0 Z" /></g><g
           transform="translate(555.5823,317.6033)"
           id="g32"><path
             id="path34"
             style="fill:#000000;fill-opacity:1;fill-rule:nonzero;stroke:none"
             d="m 0,0 c 1.323,1.099 1.987,2.69 1.987,4.776 0,2.084 -0.691,3.719 -2.071,4.903 -1.382,1.183 -3.284,1.774 -5.706,1.774 H -16.271 V -1.648 h 10.65 c 2.422,0 4.296,0.549 5.621,1.648 m -16.271,22.019 h 9.467 c 2.366,0 4.184,0.521 5.452,1.564 1.268,1.042 1.901,2.578 1.901,4.607 0,2.029 -0.633,3.578 -1.901,4.649 -1.268,1.07 -3.086,1.606 -5.452,1.606 h -9.467 z M 13.482,12.003 c 2.084,-2.677 3.128,-5.735 3.128,-9.171 0,-4.959 -1.733,-8.89 -5.199,-11.792 -3.465,-2.903 -8.298,-4.353 -14.496,-4.353 h -27.64 v 59.338 h 26.71 c 6.029,0 10.748,-1.381 14.158,-4.142 3.409,-2.762 5.114,-6.508 5.114,-11.242 0,-3.495 -0.916,-6.396 -2.747,-8.706 -1.832,-2.312 -4.268,-3.917 -7.311,-4.818 3.436,-0.733 6.198,-2.438 8.283,-5.114" /></g><path
           id="path36"
           style="fill:#000000;fill-opacity:1;fill-rule:nonzero;stroke:none"
           d="M 595.014,304.29 H 580.56 v 59.338 h 14.454 z" /><g
           transform="translate(644.927,321.6186)"
           id="g38"><path
             id="path40"
             style="fill:#000000;fill-opacity:1;fill-rule:nonzero;stroke:none"
             d="m 0,0 c 2.845,3.155 4.269,7.324 4.269,12.51 0,5.24 -1.424,9.424 -4.269,12.552 -2.846,3.128 -6.635,4.691 -11.369,4.691 -4.79,0 -8.608,-1.55 -11.453,-4.649 -2.846,-3.099 -4.269,-7.298 -4.269,-12.594 0,-5.241 1.423,-9.425 4.269,-12.552 2.845,-3.128 6.663,-4.692 11.453,-4.692 4.734,0 8.523,1.577 11.369,4.734 m -26.71,-14.032 c -4.649,2.592 -8.341,6.213 -11.074,10.862 -2.733,4.649 -4.099,9.875 -4.099,15.68 0,5.803 1.366,11.016 4.099,15.637 2.733,4.62 6.425,8.227 11.074,10.82 4.648,2.591 9.762,3.888 15.341,3.888 5.579,0 10.693,-1.297 15.342,-3.888 4.649,-2.593 8.311,-6.2 10.988,-10.82 2.676,-4.621 4.015,-9.834 4.015,-15.637 0,-5.805 -1.352,-11.031 -4.057,-15.68 -2.705,-4.649 -6.369,-8.27 -10.988,-10.862 -4.622,-2.592 -9.721,-3.888 -15.3,-3.888 -5.579,0 -10.693,1.296 -15.341,3.888" /></g><g
           transform="translate(363.3673,272.2314)"
           id="g42"><path
             id="path44"
             style="fill:#000000;fill-opacity:1;fill-rule:nonzero;stroke:none"
             d="m 0,0 c -1.071,1.972 -2.607,3.478 -4.607,4.522 -2.001,1.042 -4.353,1.564 -7.058,1.564 -4.678,0 -8.425,-1.536 -11.242,-4.607 -2.818,-3.072 -4.226,-7.172 -4.226,-12.299 0,-5.466 1.479,-9.735 4.438,-12.805 2.958,-3.072 7.028,-4.607 12.214,-4.607 3.55,0 6.55,0.9 9.002,2.705 2.451,1.803 4.239,4.395 5.367,7.776 H -14.454 V -7.1 H 16.99 v -13.44 c -1.071,-3.607 -2.888,-6.96 -5.452,-10.059 -2.565,-3.1 -5.819,-5.608 -9.763,-7.523 -3.945,-1.916 -8.397,-2.874 -13.355,-2.874 -5.862,0 -11.088,1.282 -15.68,3.846 -4.594,2.564 -8.171,6.128 -10.735,10.693 -2.565,4.564 -3.846,9.776 -3.846,15.637 0,5.861 1.281,11.087 3.846,15.68 2.564,4.592 6.128,8.171 10.693,10.735 4.564,2.564 9.776,3.846 15.637,3.846 7.101,0 13.087,-1.719 17.962,-5.156 4.874,-3.438 8.1,-8.199 9.679,-14.285 z" /></g><g
           transform="translate(402.8409,279.4162)"
           id="g46"><path
             id="path48"
             style="fill:#000000;fill-opacity:1;fill-rule:nonzero;stroke:none"
             d="M 0,0 V -12.003 H 19.357 V -23.16 H 0 v -13.018 h 21.892 v -11.58 H -14.454 V 11.58 H 21.892 V 0 Z" /></g><g
           transform="translate(487.1978,231.6582)"
           id="g50"><path
             id="path52"
             style="fill:#000000;fill-opacity:1;fill-rule:nonzero;stroke:none"
             d="M 0,0 H -14.454 L -38.629,36.6 V 0 h -14.454 v 59.338 h 14.454 l 24.175,-36.77 v 36.77 H 0 Z" /></g><g
           transform="translate(512.1332,279.4162)"
           id="g54"><path
             id="path56"
             style="fill:#000000;fill-opacity:1;fill-rule:nonzero;stroke:none"
             d="M 0,0 V -12.003 H 19.357 V -23.16 H 0 v -13.018 h 21.892 v -11.58 H -14.454 V 11.58 H 21.892 V 0 Z" /></g><g
           transform="translate(557.861,264.2858)"
           id="g58"><path
             id="path60"
             style="fill:#000000;fill-opacity:1;fill-rule:nonzero;stroke:none"
             d="m 0,0 h 8.96 c 2.648,0 4.634,0.647 5.959,1.944 1.323,1.296 1.986,3.127 1.986,5.494 0,2.254 -0.663,4.029 -1.986,5.326 -1.325,1.295 -3.311,1.944 -5.959,1.944 l -8.96,0 z m 15.807,-32.628 -12.341,22.4 H 0 v -22.4 H -14.454 V 26.71 H 9.805 c 4.677,0 8.664,-0.817 11.961,-2.451 3.296,-1.635 5.761,-3.875 7.396,-6.72 1.633,-2.846 2.451,-6.016 2.451,-9.509 0,-3.945 -1.113,-7.467 -3.339,-10.566 -2.226,-3.1 -5.509,-5.297 -9.847,-6.593 L 32.12,-32.628 Z" /></g><g
           transform="translate(631.7371,253.2972)"
           id="g62"><path
             id="path64"
             style="fill:#000000;fill-opacity:1;fill-rule:nonzero;stroke:none"
             d="M 0,0 -7.354,21.723 -14.623,0 Z m 3.719,-11.157 h -22.146 l -3.55,-10.482 h -15.131 l 21.47,59.338 H 1.099 L 22.568,-21.639 H 7.269 Z" /></g><g
           transform="translate(675.2685,242.8156)"
           id="g66"><path
             id="path68"
             style="fill:#000000;fill-opacity:1;fill-rule:nonzero;stroke:none"
             d="M 0,0 H 18.934 V -11.157 H -14.454 V 48.181 H 0 Z" /></g><path
           id="path70"
           style="fill:#012169;fill-opacity:1;fill-rule:nonzero;stroke:none"
           d="M 296.936,223.68 H 148.928 v 148.408 h 148.008 z" /><g
           transform="translate(238.0162,325.0024)"
           id="g72"><path
             id="path74"
             style="fill:#ffffff;fill-opacity:1;fill-rule:nonzero;stroke:none"
             d="M 0,0 H -0.5 -28.235 L -43.302,-20.901 H -1.1 -0.6 27.135 L 42.202,0 Z" /></g><g
           transform="translate(208.948,291.6673)"
           id="g76"><path
             id="path78"
             style="fill:#ffffff;fill-opacity:1;fill-rule:nonzero;stroke:none"
             d="M 0,0 H -0.5 -28.235 L -43.302,-20.901 H -1.1 -0.6 27.135 L 42.202,0 Z" /></g></g></g></g></svg>